<svg width="512" height="512" viewBox="0 0 512 512" fill="none" xmlns="http://www.w3.org/2000/svg">
<g clip-path="url(#clip0_563_1024)">
<path d="M487.781 484H23.781V268H119.782L255.781 132L391.784 268H487.781V484Z" fill="#E6BE94"/>
<path d="M207.781 388H303.781V484H207.781V388Z" fill="#996459"/>
<path d="M301.781 356H209.781C209.251 356 208.742 356.211 208.367 356.586C207.992 356.961 207.781 357.47 207.781 358V388H303.781V358C303.781 357.47 303.57 356.961 303.195 356.586C302.82 356.211 302.311 356 301.781 356Z" fill="#4BB9EC"/>
<path d="M329.617 68L342.656 48.438C344.289 45.985 344.445 42.829 343.054 40.227C341.663 37.625 338.953 36 336 36H256C251.578 36 248 39.578 248 44V92C248 96.422 251.578 100 256 100H336C337.448 100.001 338.87 99.6083 340.113 98.8644C341.355 98.1205 342.373 97.0531 343.056 95.7761C343.74 94.4991 344.063 93.0605 343.993 91.6138C343.923 90.1671 343.461 88.7667 342.657 87.562L329.617 68Z" fill="#FF4F19"/>
<path d="M256 140C251.578 140 248 136.422 248 132V28C248 23.578 251.578 20 256 20C260.422 20 264 23.578 264 28V132C264 136.422 260.422 140 256 140Z" fill="#5C546A"/>
<path d="M288.391 168.938C288.996 167.476 290.021 166.226 291.337 165.347C292.652 164.468 294.2 163.999 295.782 164H447.782C449.128 164 450.451 164.34 451.631 164.987C452.811 165.634 453.809 166.568 454.532 167.703L510.532 255.703C511.301 256.913 511.731 258.308 511.778 259.741C511.825 261.174 511.486 262.593 510.798 263.851C510.107 265.107 509.091 266.154 507.857 266.884C506.623 267.614 505.216 267.999 503.782 267.999H383.782C382.732 267.999 381.691 267.792 380.721 267.39C379.75 266.988 378.869 266.398 378.126 265.655L290.126 177.655C289.006 176.537 288.243 175.112 287.934 173.56C287.625 172.008 287.784 170.399 288.391 168.938ZM223.391 168.938C222.786 167.476 221.761 166.226 220.445 165.347C219.13 164.468 217.582 163.999 216 164H64C62.6544 164 61.3306 164.34 60.1508 164.987C58.9711 165.634 57.9734 166.568 57.25 167.703L1.25002 255.703C0.481088 256.913 0.0508104 258.308 0.00402547 259.741C-0.0427594 261.174 0.295661 262.593 0.984019 263.851C1.67536 265.107 2.69101 266.154 3.92506 266.884C5.1591 267.614 6.56634 267.999 8.00002 268H128C129.051 268 130.091 267.793 131.061 267.391C132.032 266.989 132.914 266.399 133.656 265.656L221.656 177.656C222.776 176.538 223.539 175.113 223.848 173.561C224.157 172.008 223.998 170.4 223.391 168.938Z" fill="#FF4F19"/>
<path d="M391.891 275.891C390.84 275.892 389.8 275.686 388.829 275.284C387.858 274.881 386.977 274.291 386.235 273.547L256 143.313L125.766 273.547C122.641 276.672 117.578 276.672 114.453 273.547C111.328 270.422 111.328 265.359 114.453 262.234L250.344 126.343C251.087 125.6 251.969 125.01 252.939 124.608C253.91 124.206 254.95 123.999 256.001 123.999C257.051 123.999 258.091 124.206 259.062 124.608C260.033 125.01 260.914 125.6 261.657 126.343L397.548 262.234C398.291 262.977 398.881 263.858 399.283 264.829C399.685 265.8 399.892 266.84 399.892 267.89C399.892 268.941 399.685 269.981 399.283 270.952C398.881 271.922 398.291 272.804 397.548 273.547C396.806 274.291 395.924 274.881 394.953 275.283C393.983 275.685 392.942 275.892 391.891 275.891Z" fill="#E3001E"/>
<path d="M256.001 316C282.511 316 304.001 294.51 304.001 268C304.001 241.49 282.511 220 256.001 220C229.491 220 208.001 241.49 208.001 268C208.001 294.51 229.491 316 256.001 316Z" fill="#FFEBB7"/>
<path d="M256 236C251.578 236 248 239.578 248 244V260H232C227.578 260 224 263.578 224 268C224 272.422 227.578 276 232 276H256C260.422 276 264 272.422 264 268V244C264 239.578 260.422 236 256 236Z" fill="#5C546A"/>
<path d="M375.781 320C375.781 308.954 366.827 300 355.781 300C344.735 300 335.781 308.954 335.781 320C335.781 321.37 335.922 322.707 336.184 324H335.781V356H375.781V324H375.378C375.641 322.707 375.781 321.37 375.781 320Z" fill="#4BB9EC"/>
<path d="M356 292C340.562 292 328 304.562 328 320V356C328 360.422 331.578 364 336 364H376C380.422 364 384 360.422 384 356V320C384 304.562 371.438 292 356 292ZM356 308C362.617 308 368 313.383 368 320V324H344V320C344 313.383 349.383 308 356 308ZM344 348V340H368V348H344Z" fill="#7E5C62"/>
<path d="M136.001 396H176.001V444H136.001V396Z" fill="#4BB9EC"/>
<path d="M176 388H136C131.578 388 128 391.578 128 396V444C128 448.422 131.578 452 136 452H176C180.422 452 184 448.422 184 444V396C184 391.578 180.422 388 176 388ZM168 404V412H144V404H168ZM144 436V428H168V436H144Z" fill="#7E5C62"/>
<path d="M63.782 396H103.782V444H63.782V396Z" fill="#4BB9EC"/>
<path d="M103.781 388H63.781C59.359 388 55.781 391.578 55.781 396V444C55.781 448.422 59.359 452 63.781 452H103.781C108.203 452 111.781 448.422 111.781 444V396C111.781 391.578 108.203 388 103.781 388ZM95.781 404V412H71.781V404H95.781ZM71.781 436V428H95.781V436H71.781Z" fill="#7E5C62"/>
<path d="M408 396H448V444H408V396Z" fill="#4BB9EC"/>
<path d="M448 388H408C403.578 388 400 391.578 400 396V444C400 448.422 403.578 452 408 452H448C452.422 452 456 448.422 456 444V396C456 391.578 452.422 388 448 388ZM440 404V412H416V404H440ZM416 436V428H440V436H416Z" fill="#7E5C62"/>
<path d="M335.782 396H375.782V444H335.782V396Z" fill="#4BB9EC"/>
<path d="M375.781 388H335.781C331.359 388 327.781 391.578 327.781 396V444C327.781 448.422 331.359 452 335.781 452H375.781C380.203 452 383.781 448.422 383.781 444V396C383.781 391.578 380.203 388 375.781 388ZM367.781 404V412H343.781V404H367.781ZM343.781 436V428H367.781V436H343.781Z" fill="#7E5C62"/>
<path d="M447.563 320C447.563 308.954 438.609 300 427.563 300C416.517 300 407.563 308.954 407.563 320C407.563 321.37 407.704 322.707 407.966 324H407.563V356H447.563V324H447.16C447.422 322.707 447.563 321.37 447.563 320Z" fill="#4BB9EC"/>
<path d="M427.781 292C412.343 292 399.781 304.562 399.781 320V356C399.781 360.422 403.359 364 407.781 364H447.781C452.203 364 455.781 360.422 455.781 356V320C455.781 304.562 443.219 292 427.781 292ZM427.781 308C434.398 308 439.781 313.383 439.781 320V324H415.781V320C415.781 313.383 421.164 308 427.781 308ZM415.781 348V340H439.781V348H415.781Z" fill="#7E5C62"/>
<path d="M103.563 320C103.563 308.954 94.609 300 83.563 300C72.517 300 63.563 308.954 63.563 320C63.563 321.37 63.704 322.707 63.966 324H63.563V356H103.563V324H103.16C103.422 322.707 103.563 321.37 103.563 320Z" fill="#4BB9EC"/>
<path d="M83.781 292C68.343 292 55.781 304.562 55.781 320V356C55.781 360.422 59.359 364 63.781 364H103.781C108.203 364 111.781 360.422 111.781 356V320C111.781 304.562 99.219 292 83.781 292ZM83.781 308C90.398 308 95.781 313.383 95.781 320V324H71.781V320C71.781 313.383 77.164 308 83.781 308ZM71.781 348V340H95.781V348H71.781Z" fill="#7E5C62"/>
<path d="M175.344 320C175.344 308.954 166.39 300 155.344 300C144.298 300 135.344 308.954 135.344 320C135.344 321.37 135.485 322.707 135.747 324H135.344V356H175.344V324H174.941C175.203 322.707 175.344 321.37 175.344 320Z" fill="#4BB9EC"/>
<path d="M155.563 292C140.125 292 127.563 304.562 127.563 320V356C127.563 360.422 131.141 364 135.563 364H175.563C179.985 364 183.563 360.422 183.563 356V320C183.563 304.562 171 292 155.563 292ZM155.563 308C162.18 308 167.563 313.383 167.563 320V324H143.563V320C143.563 313.383 148.945 308 155.563 308ZM143.563 348V340H167.563V348H143.563ZM256 324C225.121 324 200 298.879 200 268C200 237.121 225.121 212 256 212C286.879 212 312 237.121 312 268C312 298.879 286.879 324 256 324ZM256 228C233.945 228 216 245.943 216 268C216 290.057 233.945 308 256 308C278.055 308 296 290.057 296 268C296 245.943 278.055 228 256 228ZM288 348H224C210.766 348 200 358.766 200 372V484C200 488.422 203.578 492 208 492C212.422 492 216 488.422 216 484V396H247.781V484H263.781V396H296V484C296 488.422 299.578 492 304 492C308.422 492 312 488.422 312 484V372C312 358.766 301.234 348 288 348ZM296 380H216V372C216 367.586 219.586 364 224 364H288C292.414 364 296 367.586 296 372V380Z" fill="#7E5C62"/>
<path d="M504 492H8C3.578 492 0 488.422 0 484C0 479.578 3.578 476 8 476H504C508.422 476 512 479.578 512 484C512 488.422 508.422 492 504 492Z" fill="#5C546A"/>
</g>
<defs>
<clipPath id="clip0_563_1024">
<rect width="512" height="512" fill="white"/>
</clipPath>
</defs>
</svg>
